<svg xmlns="http://www.w3.org/2000/svg">
  <symbol id="plug" viewBox="0 0 24 32">
    <path
      d="M6 0C4.89375 0 4 0.89375 4 2V8H8V2C8 0.89375 7.10625 0 6 0ZM18 0C16.8937 0 16 0.89375 16 2V8H20V2C20 0.89375 19.1063 0 18 0ZM2 10C0.89375 10 0 10.8938 0 12C0 13.1062 0.89375 14 2 14V16C2 20.8375 5.4375 24.875 10 25.8V30C10 31.1063 10.8938 32 12 32C13.1062 32 14 31.1063 14 30V25.8C18.5625 24.875 22 20.8375 22 16V14C23.1063 14 24 13.1062 24 12C24 10.8938 23.1063 10 22 10H2Z"/>
  </symbol>
  <symbol id="flame" viewBox="0 0 24 32">
      <path d="M9.6 1.86875L10.6 0.5375C10.85 0.2 11.25 0 11.6687 0C12.4 0 13 0.6 13 1.33125V2.71875C13 3.5375 13.3375 4.325 13.9312 4.8875L19.225 9.9375C22.275 12.85 24 16.8875 24 21.1063C24 27.125 19.125 32 13.1062 32H12C5.375 32 0 26.625 0 20V19.7625C0 16.7125 1.2125 13.7875 3.36875 11.6313L3.5875 11.4125C3.85 11.15 4.2125 11 4.5875 11C5.36875 11 6 11.6313 6 12.4125V18C6 20.2062 7.79375 22 10 22C12.2063 22 14 20.2062 14 18V17.7563C14 16.6313 13.55 15.55 12.7563 14.7563L10.3438 12.3438C8.84375 10.8438 8 8.8 8 6.675C8 4.94375 8.5625 3.25 9.6 1.86875Z"/>
  </symbol>
  <symbol id="car" viewBox="0 0 24 22">
      <path d="M6.3375 4.50313L5.11406 8H18.8859L17.6625 4.50313C17.4516 3.90313 16.8844 3.5 16.2469 3.5H7.75312C7.11562 3.5 6.54844 3.90313 6.3375 4.50313ZM1.85625 8.225L3.50625 3.51406C4.13906 1.70938 5.84062 0.5 7.75312 0.5H16.2469C18.1594 0.5 19.8609 1.70938 20.4938 3.51406L22.1437 8.225C23.2312 8.675 24 9.74844 24 11V17.75V20C24 20.8297 23.3297 21.5 22.5 21.5H21C20.1703 21.5 19.5 20.8297 19.5 20V17.75H4.5V20C4.5 20.8297 3.82969 21.5 3 21.5H1.5C0.670312 21.5 0 20.8297 0 20V17.75V11C0 9.74844 0.76875 8.675 1.85625 8.225ZM6 12.5C6 11.6703 5.32969 11 4.5 11C3.67031 11 3 11.6703 3 12.5C3 13.3297 3.67031 14 4.5 14C5.32969 14 6 13.3297 6 12.5ZM19.5 14C20.3297 14 21 13.3297 21 12.5C21 11.6703 20.3297 11 19.5 11C18.6703 11 18 11.6703 18 12.5C18 13.3297 18.6703 14 19.5 14Z"/>
  </symbol>
  <symbol id="utensils" viewBox="0 0 24 28">
      <g clip-path="url(#clip0_4_41)">
        <path d="M22.2857 0C21.4286 0 15.4286 1.71429 15.4286 9.42857V15.4286C15.4286 17.3196 16.9661 18.8571 18.8571 18.8571H20.5714V25.7143C20.5714 26.6625 21.3375 27.4286 22.2857 27.4286C23.2339 27.4286 24 26.6625 24 25.7143V18.8571V12.8571V1.71429C24 0.766071 23.2339 0 22.2857 0ZM3.42857 0.857143C3.42857 0.417857 3.10179 0.0535714 2.6625 0.00535714C2.22321 -0.0428571 1.83214 0.246429 1.73571 0.669643L0.1125 7.97143C0.0375 8.30893 0 8.65179 0 8.99464C0 11.4536 1.88036 13.4732 4.28571 13.6929V25.7143C4.28571 26.6625 5.05179 27.4286 6 27.4286C6.94821 27.4286 7.71429 26.6625 7.71429 25.7143V13.6929C10.1196 13.4732 12 11.4536 12 8.99464C12 8.65179 11.9625 8.30893 11.8875 7.97143L10.2643 0.669643C10.1679 0.241071 9.76607 -0.0428571 9.33214 0.00535714C8.89821 0.0535714 8.57143 0.417857 8.57143 0.857143V8.04643C8.57143 8.33571 8.33571 8.57143 8.04643 8.57143C7.77321 8.57143 7.54821 8.3625 7.52143 8.08929L6.85179 0.782143C6.81429 0.3375 6.44464 0 6 0C5.55536 0 5.18571 0.3375 5.14821 0.782143L4.48393 8.08929C4.45714 8.3625 4.23214 8.57143 3.95893 8.57143C3.66964 8.57143 3.43393 8.33571 3.43393 8.04643V0.857143H3.42857ZM6.01607 9H6H5.98393L6 8.9625L6.01607 9Z"/>
      </g>
      <defs>
        <clipPath id="clip0_4_41">
          <rect width="24" height="27.4286"/>
        </clipPath>
      </defs>
  </symbol>
  <symbol id="graph" viewBox="0 0 24 25">
      <path d="M3.42857 0.714233C1.5375 0.714233 0 2.25173 0 4.1428V21.2857C0 23.1767 1.5375 24.7142 3.42857 24.7142H20.5714C22.4625 24.7142 24 23.1767 24 21.2857V4.1428C24 2.25173 22.4625 0.714233 20.5714 0.714233H3.42857ZM6.85714 10.9999C7.80536 10.9999 8.57143 11.766 8.57143 12.7142V17.8571C8.57143 18.8053 7.80536 19.5714 6.85714 19.5714C5.90893 19.5714 5.14286 18.8053 5.14286 17.8571V12.7142C5.14286 11.766 5.90893 10.9999 6.85714 10.9999ZM10.2857 7.57138C10.2857 6.62316 11.0518 5.85709 12 5.85709C12.9482 5.85709 13.7143 6.62316 13.7143 7.57138V17.8571C13.7143 18.8053 12.9482 19.5714 12 19.5714C11.0518 19.5714 10.2857 18.8053 10.2857 17.8571V7.57138ZM17.1429 14.4285C18.0911 14.4285 18.8571 15.1946 18.8571 16.1428V17.8571C18.8571 18.8053 18.0911 19.5714 17.1429 19.5714C16.1946 19.5714 15.4286 18.8053 15.4286 17.8571V16.1428C15.4286 15.1946 16.1946 14.4285 17.1429 14.4285Z"/>

  </symbol>
  <symbol id="shop" viewBox="0 0 576 512">
    <path d="M24 0C10.7 0 0 10.7 0 24S10.7 48 24 48H76.1l60.3 316.5c2.2 11.3 12.1 19.5 23.6 19.5H488c13.3 0 24-10.7 24-24s-10.7-24-24-24H179.9l-9.1-48h317c14.3 0 26.9-9.5 30.8-23.3l54-192C578.3 52.3 563 32 541.8 32H122l-2.4-12.5C117.4 8.2 107.5 0 96 0H24zM176 512c26.5 0 48-21.5 48-48s-21.5-48-48-48s-48 21.5-48 48s21.5 48 48 48zm336-48c0-26.5-21.5-48-48-48s-48 21.5-48 48s21.5 48 48 48s48-21.5 48-48z"/>
  </symbol>
</svg>
